<?xml version="1.0" encoding="utf-8"?><!DOCTYPE svg PUBLIC "-//W3C//DTD SVG 1.1//EN" "http://www.w3.org/Graphics/SVG/1.1/DTD/svg11.dtd"><svg xmlns="http://www.w3.org/2000/svg" width="280" height="280" viewBox="0 0 51 51" shape-rendering="crispEdges"><path fill="#ffffff" d="M0 0h51v51H0z"/><path stroke="#000000" d="M1 1.5h7m7 0h1m1 0h5m2 0h1m1 0h5m2 0h1m7 0h1m1 0h7M1 2.5h1m5 0h1m2 0h2m2 0h2m3 0h1m1 0h1m1 0h2m4 0h1m1 0h3m1 0h2m1 0h4m1 0h1m5 0h1M1 3.5h1m1 0h3m1 0h1m1 0h6m1 0h2m1 0h4m2 0h8m1 0h1m1 0h1m3 0h2m1 0h1m1 0h3m1 0h1M1 4.5h1m1 0h3m1 0h1m1 0h1m2 0h5m1 0h2m4 0h1m2 0h2m2 0h2m3 0h3m1 0h1m2 0h1m1 0h3m1 0h1M1 5.5h1m1 0h3m1 0h1m1 0h1m1 0h1m1 0h2m1 0h2m2 0h12m2 0h1m3 0h1m4 0h1m1 0h3m1 0h1M1 6.5h1m5 0h1m1 0h1m5 0h2m1 0h1m2 0h1m1 0h1m3 0h1m1 0h1m3 0h7m3 0h1m5 0h1M1 7.5h7m1 0h1m1 0h1m1 0h1m1 0h1m1 0h1m1 0h1m1 0h1m1 0h1m1 0h1m1 0h1m1 0h1m1 0h1m1 0h1m1 0h1m1 0h1m1 0h1m1 0h1m1 0h7M9 8.5h1m1 0h1m1 0h1m1 0h1m1 0h1m1 0h3m1 0h1m3 0h1m1 0h2m2 0h1m1 0h7M1 9.5h1m1 0h5m2 0h1m2 0h1m2 0h2m3 0h7m2 0h3m2 0h5m1 0h1m1 0h5M1 10.5h1m1 0h1m1 0h2m1 0h2m1 0h2m1 0h2m1 0h1m1 0h2m2 0h1m2 0h1m4 0h2m3 0h3m3 0h4m1 0h2M1 11.5h2m2 0h3m1 0h6m2 0h1m1 0h2m2 0h2m1 0h2m2 0h1m1 0h1m1 0h3m2 0h1m1 0h2m1 0h2m2 0h2M3 12.5h1m2 0h1m2 0h3m1 0h1m1 0h1m2 0h3m3 0h3m1 0h3m1 0h4m2 0h1m2 0h1m2 0h1m3 0h2M4 13.5h5m3 0h1m4 0h4m1 0h4m2 0h1m1 0h1m1 0h1m3 0h4m1 0h1m2 0h1m2 0h3M2 14.5h1m3 0h1m4 0h2m1 0h3m1 0h2m2 0h1m1 0h3m3 0h3m5 0h1m1 0h1m2 0h1m1 0h1m1 0h2M1 15.5h4m2 0h1m3 0h1m3 0h1m4 0h1m3 0h1m2 0h1m1 0h2m2 0h6m1 0h2m3 0h1m2 0h2M1 16.5h1m3 0h1m3 0h2m3 0h1m1 0h4m2 0h1m3 0h1m4 0h2m7 0h1m2 0h3m3 0h1M7 17.5h2m5 0h4m3 0h1m2 0h2m1 0h2m1 0h2m2 0h1m1 0h7m1 0h1m2 0h1M3 18.5h2m3 0h2m1 0h1m1 0h6m1 0h1m3 0h1m1 0h1m4 0h2m1 0h1m1 0h3m3 0h3m3 0h1M1 19.5h3m2 0h2m1 0h2m1 0h1m1 0h2m2 0h2m5 0h4m1 0h2m2 0h1m1 0h4m1 0h1m2 0h3m2 0h1M1 20.5h1m1 0h2m1 0h1m1 0h2m2 0h1m2 0h3m1 0h2m3 0h1m3 0h2m1 0h1m1 0h1m1 0h2m2 0h1m1 0h2m1 0h2m3 0h1M2 21.5h2m1 0h1m1 0h2m4 0h5m3 0h1m1 0h1m1 0h2m3 0h3m3 0h3m1 0h3m4 0h3M2 22.5h1m2 0h2m1 0h1m1 0h3m2 0h2m2 0h2m2 0h2m4 0h1m1 0h2m3 0h3m4 0h4m1 0h1M1 23.5h2m2 0h5m2 0h2m1 0h3m1 0h2m1 0h6m1 0h1m3 0h3m2 0h10m1 0h1M1 24.5h3m1 0h1m3 0h1m1 0h3m2 0h4m1 0h1m1 0h1m3 0h1m1 0h2m1 0h2m1 0h1m2 0h2m1 0h1m3 0h1M1 25.5h2m1 0h2m1 0h1m1 0h1m6 0h2m2 0h4m1 0h1m1 0h1m2 0h3m3 0h2m3 0h1m1 0h1m1 0h4M3 26.5h1m1 0h1m3 0h3m3 0h1m1 0h2m1 0h1m2 0h1m3 0h6m4 0h1m2 0h2m3 0h1m2 0h1M3 27.5h1m1 0h6m1 0h1m2 0h1m1 0h1m2 0h2m1 0h5m2 0h1m2 0h5m1 0h1m1 0h9M2 28.5h1m3 0h1m1 0h1m1 0h1m1 0h2m2 0h3m1 0h5m1 0h1m1 0h2m1 0h1m1 0h4m1 0h5m5 0h1M1 29.5h1m1 0h1m1 0h3m1 0h1m1 0h2m1 0h2m1 0h1m6 0h3m5 0h1m3 0h8m1 0h1m1 0h2M1 30.5h1m1 0h1m1 0h1m2 0h2m1 0h1m3 0h2m1 0h6m1 0h2m2 0h3m1 0h1m2 0h1m1 0h1m1 0h1m2 0h2m1 0h1M3 31.5h2m1 0h2m3 0h1m1 0h1m1 0h1m5 0h1m1 0h4m2 0h1m2 0h1m3 0h1m2 0h5m2 0h1m1 0h2M1 32.5h2m1 0h1m3 0h1m1 0h4m3 0h1m1 0h3m3 0h1m1 0h2m1 0h1m4 0h1m2 0h1m3 0h4m2 0h1M3 33.5h2m2 0h4m1 0h4m1 0h5m1 0h1m2 0h2m1 0h1m2 0h6m2 0h1m1 0h1m1 0h4m1 0h1M5 34.5h1m2 0h1m1 0h3m1 0h2m3 0h2m3 0h3m1 0h3m2 0h1m1 0h1m1 0h2m1 0h1m1 0h1m1 0h1m3 0h1M2 35.5h1m1 0h2m1 0h1m5 0h1m7 0h3m1 0h2m2 0h1m1 0h4m1 0h5m2 0h1m1 0h2m1 0h2M1 36.5h1m1 0h3m2 0h2m5 0h1m4 0h3m1 0h3m1 0h3m2 0h1m1 0h2m4 0h1m2 0h2M1 37.5h2m1 0h2m1 0h1m2 0h1m1 0h3m1 0h3m2 0h3m2 0h1m5 0h1m2 0h6m2 0h3m1 0h2M2 38.5h1m1 0h1m1 0h1m3 0h4m3 0h4m1 0h1m1 0h3m3 0h2m1 0h1m4 0h1m1 0h1m1 0h1m3 0h1M2 39.5h1m3 0h2m1 0h5m1 0h1m2 0h1m1 0h1m2 0h2m1 0h1m1 0h2m5 0h1m1 0h1m1 0h1m1 0h4m2 0h3M2 40.5h3m3 0h1m1 0h3m6 0h1m2 0h1m1 0h1m1 0h4m1 0h1m1 0h1m2 0h1m1 0h1m2 0h1m2 0h1m3 0h1M1 41.5h3m3 0h2m3 0h1m2 0h1m1 0h1m1 0h2m1 0h7m1 0h3m3 0h2m1 0h11M9 42.5h1m1 0h5m1 0h4m1 0h2m3 0h5m4 0h3m2 0h1m3 0h1M1 43.5h7m2 0h1m1 0h2m1 0h1m2 0h1m1 0h1m1 0h2m1 0h1m1 0h2m1 0h1m1 0h1m1 0h6m1 0h1m1 0h1m1 0h5M1 44.5h1m5 0h1m1 0h1m1 0h1m1 0h1m1 0h1m1 0h2m1 0h4m3 0h3m1 0h3m1 0h1m3 0h1m1 0h1m3 0h1m2 0h1M1 45.5h1m1 0h3m1 0h1m1 0h3m2 0h3m1 0h3m2 0h5m2 0h3m2 0h5m1 0h7m1 0h1M1 46.5h1m1 0h3m1 0h1m1 0h4m5 0h1m3 0h2m2 0h2m1 0h5m2 0h1m1 0h1m1 0h2m1 0h5m1 0h1M1 47.5h1m1 0h3m1 0h1m1 0h1m6 0h2m1 0h2m2 0h1m1 0h1m1 0h2m6 0h1m2 0h2m4 0h1M1 48.5h1m5 0h1m2 0h3m1 0h4m1 0h1m3 0h5m3 0h2m1 0h1m3 0h1m2 0h1m1 0h1m5 0h1M1 49.5h7m1 0h2m2 0h1m2 0h1m1 0h1m2 0h1m3 0h1m2 0h1m1 0h2m4 0h3m2 0h2m3 0h4"/></svg>
